<svg width="1315" height="360" viewBox="0 0 1315 360" fill="none" xmlns="http://www.w3.org/2000/svg">
<path d="M43.921 258.818L158.267 27.8711C173.412 -2.21978 224.906 -12.7514 246.109 27.1188L277.914 91.8143C258.644 79.199 247.439 77.7312 236.265 97.0799C225.091 116.429 143.122 302.449 119.647 333.293C96.1719 364.136 53.7654 363.384 34.8339 333.293C15.9024 303.202 0 264.836 0 264.836C22.0602 277.684 32.7728 280.409 43.921 258.818Z" fill="white"/>
<path d="M258.859 260.41L369.223 27.5596C383.85 -2.78356 435.155 -14.1861 457.04 25.3191L491.461 93.3189C471.977 81.0319 459.895 76.7928 449.055 96.328C438.215 115.863 358.794 302.354 335.852 333.591C312.91 364.828 270.497 364.794 251.052 335.028C231.606 305.262 216.576 265.589 216.576 265.589C233.236 276.873 248.083 282.187 258.859 260.41Z" fill="white"/>
<path d="M465.714 205.407C418.007 243.773 450.569 359.623 583.09 356.614C583.09 356.614 532.353 340.816 548.256 293.423C561.886 267.846 562.544 239.679 552.042 220.453C536.619 192.218 494.096 182.583 465.714 205.407Z" fill="white"/>
<path d="M667.004 132.316L667.297 125.676C675.435 124.634 680.611 122.974 682.824 120.695C684.257 119.133 685.363 115.064 686.145 108.488L687.414 73.7227L688.879 38.3711C689.009 36.2227 689.074 34.9206 689.074 34.4648C689.074 25.2852 688.521 19.9792 687.414 18.5469C686.372 17.1146 682.206 15.7148 674.914 14.3477C673.091 13.957 671.659 13.6315 670.617 13.3711C670.487 11.7435 670.422 10.3763 670.422 9.26953V6.24219C672.831 6.04687 675.663 5.94922 678.918 5.94922L707.531 6.92578C708.182 6.99088 709.094 7.05599 710.266 7.12109L714.758 7.31641C715.865 8.61849 716.971 10.3437 718.078 12.4922C720.487 17.2448 723.677 24.2109 727.648 33.3906L728.723 36.0273L743.957 69.1328C744.283 69.9141 744.803 71.0534 745.52 72.5508C746.496 74.8945 747.505 77.1406 748.547 79.2891C749.589 81.3724 750.663 83.6836 751.77 86.2227C752.941 88.7617 754.048 91.0078 755.09 92.9609C756.001 91.3984 756.88 89.6732 757.727 87.7852C760.331 81.7956 762.87 76.2943 765.344 71.2812C769.641 62.4271 775.467 48.8854 782.824 30.6562C783.996 27.7266 785.917 23.332 788.586 17.4727C791.32 11.5482 792.818 8.42318 793.078 8.09766C793.664 7.57682 794.836 7.31641 796.594 7.31641C797.245 7.31641 798.254 7.28385 799.621 7.21875C803.007 7.02344 807.076 6.86068 811.828 6.73047C818.664 6.66536 824.133 6.47005 828.234 6.14453C832.401 5.75391 834.745 5.55859 835.266 5.55859C835.917 5.55859 836.698 5.6237 837.609 5.75391C837.674 6.66536 837.707 7.38151 837.707 7.90234L837.512 10.832C837.512 11.418 837.479 12.2969 837.414 13.4687C831.294 14.3802 826.314 15.7474 822.473 17.5703C819.803 18.8724 818.469 20.5 818.469 22.4531V23.918L820.129 53.8008C820.324 56.5352 820.845 70.1094 821.691 94.5234C821.887 99.9922 822.31 106.926 822.961 115.324C823.091 116.366 823.156 117.18 823.156 117.766C823.221 119.328 823.547 120.337 824.133 120.793C824.784 121.249 830.643 123.137 841.711 126.457C841.776 127.499 841.809 128.28 841.809 128.801C841.809 130.168 841.776 131.535 841.711 132.902C839.953 132.902 835.526 132.544 828.43 131.828C821.333 131.047 814.693 130.656 808.508 130.656C799.068 130.656 789.888 131.047 780.969 131.828C779.797 131.958 778.658 132.056 777.551 132.121L777.746 125.383C780.415 124.341 783.964 123.462 788.391 122.746C791.516 122.225 793.501 121.346 794.348 120.109C795.194 118.872 795.617 115.422 795.617 109.758C795.617 107.609 795.585 105.721 795.52 104.094C795.194 97.2578 794.999 87.7526 794.934 75.5781L793.273 41.1055C793.078 36.2227 792.85 32.8372 792.59 30.9492L768.273 86.8086C767.688 88.1107 766.809 89.9987 765.637 92.4727C764.139 95.6628 763.13 97.8438 762.609 99.0156C757.596 111.06 754.113 120.272 752.16 126.652C751.639 128.28 750.858 130.396 749.816 133L742.297 132.902L737.023 117.961C735.461 114.055 732.792 108.13 729.016 100.188C726.802 95.5651 725.077 91.8216 723.84 88.957C723.254 87.7852 722.831 86.9062 722.57 86.3203L721.398 83.8789C721.333 83.4883 721.236 83.1628 721.105 82.9023L706.555 51.5547L697.668 32.5117L696.887 78.7031L696.203 108.684C696.203 113.632 697.115 117.18 698.938 119.328C700.826 121.411 704.829 123.202 710.949 124.699L715.637 125.871V133C711.861 132.935 707.792 132.674 703.43 132.219C699.133 131.698 693.404 131.438 686.242 131.438C684.745 131.438 678.332 131.73 667.004 132.316Z" fill="white"/>
<path d="M856.359 157.902C858.964 162.46 861.275 165.357 863.293 166.594C864.4 167.049 865.279 167.277 865.93 167.277C867.427 167.277 868.697 166.496 869.738 164.934C871.236 162.72 871.984 159.074 871.984 153.996V148.234C871.984 144.719 872.115 141.366 872.375 138.176C872.505 136.353 872.57 134.823 872.57 133.586C872.57 133 872.505 130.786 872.375 126.945L872.473 119.621L872.18 83C872.18 81.0469 872.147 79.4844 872.082 78.3125C871.887 75.7083 871.789 73.2018 871.789 70.793L871.887 49.6016L871.398 31.6328L870.91 25.1875C870.91 20.3698 870.878 17.3424 870.812 16.1055C869.38 15.7799 864.986 15.2591 857.629 14.543H855.285L852.746 14.25C852.355 14.1849 851.737 14.0872 850.891 13.957L850.402 5.55859C856.783 5.55859 862.251 5.78646 866.809 6.24219C871.366 6.63281 877.453 6.82812 885.07 6.82812C891.646 6.82812 898.84 6.4375 906.652 5.65625C908.28 5.46094 909.549 5.36328 910.461 5.36328C911.568 5.36328 913.195 5.49349 915.344 5.75391C915.474 7.2513 915.539 8.39062 915.539 9.17187C915.539 10.0182 915.441 11.3203 915.246 13.0781C910.428 13.7292 907.271 14.0547 905.773 14.0547C902.323 14.1198 899.784 14.4128 898.156 14.9336C898.091 16.4961 898.059 17.4401 898.059 17.7656C898.059 24.0807 898.124 27.9219 898.254 29.2891C898.449 30.6562 898.547 34.4323 898.547 40.6172V48.7227L898.938 61.3203L898.742 71.1836L899.035 81.1445L898.938 91.3984L899.133 98.918C899.133 113.371 898.514 124.602 897.277 132.609C896.04 140.552 894.087 147.062 891.418 152.141C887.642 159.367 884.224 164.445 881.164 167.375C876.086 172.128 871.105 175.415 866.223 177.238C861.34 179.126 856.49 180.07 851.672 180.07C847.115 180.07 843.176 178.475 839.855 175.285C836.47 172.095 834.777 168.384 834.777 164.152C834.777 160.702 835.982 157.837 838.391 155.559C840.734 153.28 843.534 152.141 846.789 152.141C849.914 152.141 853.104 154.061 856.359 157.902Z" fill="white"/>
<path d="M667.492 349.309C669.51 348.723 672.342 348.169 675.988 347.648C679.699 347.062 681.88 346.77 682.531 346.77C685.07 346.704 686.763 346.281 687.609 345.5C688 343.938 688.195 342.635 688.195 341.594L688 329.094L688.586 316.398V308.293L688.684 298.723L688.488 288.566L688.879 266.789L688.977 256.926V255.559C688.521 248.723 688.065 244.979 687.609 244.328C687.219 243.612 685.363 242.733 682.043 241.691C681.717 241.561 680.48 241.073 678.332 240.227C676.704 239.576 675.24 239.12 673.938 238.859C671.659 238.273 670.064 237.59 669.152 236.809C669.022 235.116 668.957 233.814 668.957 232.902C668.957 232.382 668.99 231.6 669.055 230.559C669.641 230.233 670.259 230.07 670.91 230.07C672.473 230.07 678.137 230.331 687.902 230.852L701.867 230.754L712.219 230.949C716.711 230.949 722.473 230.656 729.504 230.07C731.587 229.875 732.792 229.777 733.117 229.777C734.094 229.777 734.777 230.038 735.168 230.559C735.689 231.275 735.949 232.577 735.949 234.465C735.949 235.962 735.591 237.102 734.875 237.883C734.484 238.339 733.052 238.729 730.578 239.055L718.469 241.887C718.143 242.017 717.59 242.277 716.809 242.668C716.548 243.124 716.353 243.514 716.223 243.84L716.125 246.574L715.832 252.727V254.484L715.93 255.559C715.93 255.884 715.832 257.674 715.637 260.93C715.572 261.776 715.539 262.622 715.539 263.469C715.539 264.51 715.604 266.268 715.734 268.742C715.93 272.648 716.027 276.066 716.027 278.996C716.027 282.382 715.93 286.255 715.734 290.617C715.669 292.245 715.637 294.361 715.637 296.965L715.246 343.254C715.246 345.207 715.572 346.477 716.223 347.062L725.5 347.453L731.262 347.355L737.414 347.551C747.896 347.551 756.132 346.346 762.121 343.938C766.613 342.115 769.543 340.292 770.91 338.469C773.124 336.516 774.914 334.4 776.281 332.121C777.714 329.842 779.309 326.066 781.066 320.793H784.191C785.754 320.793 787.512 320.923 789.465 321.184V323.918C789.465 328.605 788.879 336.809 787.707 348.527C787.251 353.215 786.796 356.079 786.34 357.121C784.842 357.382 783.898 357.512 783.508 357.512H779.895L774.816 357.609C774.23 357.609 770.357 357.349 763.195 356.828C761.893 356.763 755.676 356.535 744.543 356.145C733.41 355.754 722.505 355.559 711.828 355.559L691.906 356.145C684.224 356.34 677.03 356.698 670.324 357.219H668.859C668.469 357.219 667.85 357.186 667.004 357.121C666.874 356.405 666.809 355.786 666.809 355.266C666.809 352.531 667.036 350.546 667.492 349.309Z" fill="white"/>
<path d="M794.152 230.949C797.863 231.145 801.086 231.438 803.82 231.828C808.964 232.544 814.921 232.902 821.691 232.902C824.035 232.902 830.057 232.707 839.758 232.316C854.276 231.73 867.395 231.438 879.113 231.438L896.789 231.242C900.76 231.242 906.62 231.73 914.367 232.707C915.539 234.009 916.125 235.767 916.125 237.98V258.098L916.32 262.102C916.32 262.492 916.288 263.078 916.223 263.859L912.219 264.055C911.698 264.055 910.591 263.99 908.898 263.859C908.312 262.557 907.531 260.637 906.555 258.098L902.648 251.164C901.151 248.234 899.068 245.24 896.398 242.18C894.771 241.724 892.688 241.464 890.148 241.398C889.497 241.333 887.512 241.171 884.191 240.91C878.137 240.389 871.626 240.129 864.66 240.129C856.717 240.129 849.621 240.259 843.371 240.52C843.176 242.147 843.078 248.56 843.078 259.758L843.273 276.164V288.469C844.901 288.664 846.301 288.762 847.473 288.762C859.126 288.762 867.427 288.534 872.375 288.078C877.323 287.622 880.383 287.004 881.555 286.223C882.727 285.376 883.768 283.944 884.68 281.926C885.266 280.493 886.405 275.708 888.098 267.57L889.367 267.473L895.031 267.57C895.292 273.365 895.422 277.759 895.422 280.754C895.422 287.59 895.357 291.984 895.227 293.938C895.161 295.891 895.129 297.421 895.129 298.527C895.129 300.285 895.227 303.117 895.422 307.023C895.617 310.865 895.715 313.729 895.715 315.617V317.766H888.781C888.521 316.724 888.033 314.576 887.316 311.32C886.014 305.266 884.842 301.49 883.801 299.992C883.02 298.82 881.717 297.941 879.895 297.355C878.592 296.9 873.775 296.672 865.441 296.672C855.611 296.672 848.221 296.932 843.273 297.453C843.208 299.146 843.176 300.253 843.176 300.773C843.176 308.521 843.306 314.966 843.566 320.109L843.371 341.203C843.371 343.677 844.25 345.37 846.008 346.281C848.677 347.648 856.848 348.332 870.52 348.332C879.569 348.332 887.251 347.648 893.566 346.281C897.928 345.305 901.77 343.124 905.09 339.738C909.517 335.376 913.195 329.257 916.125 321.379C918.143 321.184 919.803 321.086 921.105 321.086C921.822 321.086 922.896 321.118 924.328 321.184C924.133 322.811 923.97 324.178 923.84 325.285L923.254 328.215L919.641 346.672L917.883 357.805C913.651 358 910.298 358.098 907.824 358.098C904.178 358.098 894.445 357.772 878.625 357.121C867.492 356.665 854.081 356.438 838.391 356.438C830.578 356.438 820.975 356.763 809.582 357.414H805.48L793.664 357.805V351.066C794.901 350.741 797.375 350.383 801.086 349.992C807.857 349.211 812.544 348.169 815.148 346.867C815.865 344.979 816.223 342.603 816.223 339.738C816.223 338.632 816.19 336.743 816.125 334.074L816.223 331.047L815.93 294.23L816.027 283.195L815.539 267.57L815.637 256.535L814.758 244.426C814.758 244.1 814.693 243.449 814.562 242.473C813.911 241.757 812.935 241.301 811.633 241.105C810.917 240.975 809.94 240.78 808.703 240.52C804.992 239.738 801.411 239.283 797.961 239.152C796.724 239.087 795.292 238.957 793.664 238.762L794.152 230.949Z" fill="white"/>
<path d="M929.406 357.316L929.602 350.676C930.839 350.285 933.02 349.797 936.145 349.211C941.158 348.234 944.185 347.355 945.227 346.574C946.333 345.793 947.668 343.905 949.23 340.91L992.102 228.508C994.25 228.573 996.301 228.605 998.254 228.605H1002.65L1003.53 230.363L1020.52 270.598C1024.36 279.126 1027.81 287.427 1030.87 295.5C1033.93 303.508 1036.57 310.051 1038.78 315.129C1040.08 318.189 1041.87 322.779 1044.15 328.898C1045.32 332.219 1047.11 336.385 1049.52 341.398C1050.83 344.133 1051.8 345.728 1052.45 346.184C1053.62 347.16 1055.51 347.811 1058.12 348.137C1060.79 348.462 1063.65 349.211 1066.71 350.383C1067.04 352.531 1067.2 354.126 1067.2 355.168C1067.2 355.624 1067.17 356.34 1067.1 357.316C1062.28 357.316 1056.98 357.089 1051.18 356.633C1045.39 356.177 1040.18 355.949 1035.56 355.949C1030.42 355.949 1026.7 356.014 1024.43 356.145L1007.82 357.023L1003.04 357.219C1003.04 354.94 1003.14 352.759 1003.33 350.676L1014.17 348.332C1017.43 347.486 1019.32 346.835 1019.84 346.379C1020.49 345.728 1020.81 344.979 1020.81 344.133C1020.81 343.286 1020.65 342.408 1020.32 341.496L1016.42 331.926L1008.7 312.785L971.398 312.688C970.031 315.812 967.199 323.462 962.902 335.637C961.665 339.087 961.047 341.431 961.047 342.668C961.047 344.361 961.503 345.565 962.414 346.281C963.911 347.518 966.776 348.397 971.008 348.918C971.594 349.048 973.905 349.406 977.941 349.992C978.007 352.336 978.039 353.964 978.039 354.875C978.039 355.591 977.974 356.34 977.844 357.121C973.807 357.121 964.172 356.568 948.938 355.461L944.934 356.145C940.116 356.926 935.526 357.316 931.164 357.316H929.406ZM975.305 302.434C990.539 302.629 999.523 302.727 1002.26 302.727L1004.7 302.629C1002.75 296.835 1000.21 290.096 997.082 282.414C993.957 274.667 991.418 268.775 989.465 264.738L975.305 302.434Z" fill="white"/>
<path d="M1068.18 349.406C1069.15 349.146 1071.17 348.755 1074.23 348.234C1080.29 347.193 1084.26 345.793 1086.14 344.035C1087.32 342.928 1088.07 340.812 1088.39 337.688C1088.46 336.906 1088.68 326.978 1089.07 307.902L1088.98 297.16L1089.07 284.172L1088.68 250.871L1088.78 246.965C1088.78 245.272 1088.33 243.97 1087.41 243.059C1086.96 242.603 1085.69 242.375 1083.61 242.375C1081.91 242.375 1079.96 242.57 1077.75 242.961C1074.88 243.091 1072.31 243.352 1070.03 243.742C1069.64 243.807 1069.02 243.905 1068.18 244.035L1068.08 235.441C1071.92 234.204 1077.42 233 1084.58 231.828C1096.43 229.875 1111.01 228.898 1128.33 228.898C1142.79 228.898 1153.36 229.712 1160.07 231.34C1170.23 233.879 1178.49 237.655 1184.88 242.668C1193.4 249.374 1199.78 257.154 1204.02 266.008C1208.31 274.797 1210.46 284.4 1210.46 294.816C1210.46 307.967 1207.6 319.263 1201.87 328.703C1196.14 338.078 1187.9 345.598 1177.16 351.262C1169.61 355.298 1159.35 357.316 1146.4 357.316L1126.38 356.438L1120.52 356.145L1112.61 356.34L1110.27 356.145L1102.06 356.34L1091.22 356.242C1090.83 356.242 1087.51 356.47 1081.26 356.926C1079.18 357.056 1076.44 357.154 1073.06 357.219C1070.98 357.219 1069.41 357.251 1068.37 357.316C1068.24 355.884 1068.18 353.247 1068.18 349.406ZM1115.54 240.617C1115.34 242.635 1115.25 244.068 1115.25 244.914L1115.54 261.516L1115.34 275.969C1115.54 280.656 1115.64 284.758 1115.64 288.273L1115.54 297.551L1115.73 313.078L1115.54 322.648C1115.54 331.568 1117.2 337.622 1120.52 340.812C1125.34 345.37 1131.98 347.648 1140.44 347.648C1146.89 347.648 1151.64 347.03 1154.7 345.793C1161.08 343.319 1166.12 340.031 1169.84 335.93C1173.61 331.828 1176.48 326.034 1178.43 318.547C1180.38 310.995 1181.36 303.215 1181.36 295.207C1181.36 282.056 1179.24 271.314 1175.01 262.98C1170.85 254.647 1165.12 248.397 1157.82 244.23C1150.53 239.999 1142.17 237.883 1132.73 237.883C1126.09 237.883 1120.36 238.794 1115.54 240.617Z" fill="white"/>
<path d="M1301.96 233.781C1302.62 235.995 1303.2 239.348 1303.72 243.84C1304.5 250.546 1304.89 255.754 1304.89 259.465C1304.89 260.637 1304.76 261.906 1304.5 263.273L1303.53 263.566L1296.5 263.078L1295.32 262.883C1292.46 254.289 1289.6 248.462 1286.73 245.402C1281.78 240.194 1275.96 237.59 1269.25 237.59C1262.87 237.59 1257.79 239.283 1254.02 242.668C1250.3 245.988 1248.45 250.122 1248.45 255.07C1248.45 259.237 1250.3 263.241 1254.02 267.082C1257.66 270.923 1265.41 274.602 1277.26 278.117C1281.23 279.289 1286.01 281.177 1291.61 283.781C1297.28 286.385 1301.57 289.217 1304.5 292.277C1308.41 296.314 1311.08 300.22 1312.51 303.996C1314.01 307.707 1314.76 312.362 1314.76 317.961C1314.76 324.081 1313.62 330.103 1311.34 336.027C1310.1 339.152 1308.12 342.115 1305.38 344.914C1303.43 346.867 1300.4 349.178 1296.3 351.848C1292.2 354.452 1287.93 356.34 1283.51 357.512C1279.15 358.684 1273.51 359.27 1266.61 359.27C1262.06 359.27 1256.62 358.618 1250.3 357.316L1238.59 353.898C1235.33 352.987 1233.28 352.173 1232.43 351.457C1232.11 351.197 1231.82 350.578 1231.55 349.602V348.527C1231.55 347.811 1231.39 343.352 1231.07 335.148C1230.94 330.917 1230.87 327.922 1230.87 326.164V322.453L1239.86 322.258C1242.98 329.484 1245 333.846 1245.91 335.344C1247.93 338.664 1250.14 341.366 1252.55 343.449C1255.02 345.467 1257.95 347.095 1261.34 348.332C1264.73 349.504 1268.4 350.09 1272.38 350.09C1275.89 350.09 1279.76 349.341 1284 347.844C1288.23 346.346 1291.61 343.905 1294.15 340.52C1296.76 337.069 1298.06 333.391 1298.06 329.484C1298.06 324.667 1295.81 320.207 1291.32 316.105C1288.59 313.566 1281.23 310.181 1269.25 305.949C1257.27 301.717 1248.97 297.941 1244.35 294.621C1239.73 291.301 1236.08 286.874 1233.41 281.34C1230.74 275.741 1229.41 270.37 1229.41 265.227C1229.41 254.875 1233.12 246.086 1240.54 238.859C1247.96 231.633 1258.9 228.02 1273.35 228.02C1276.48 228.02 1281.1 228.573 1287.22 229.68C1290.93 230.331 1295.85 231.698 1301.96 233.781Z" fill="white"/>
</svg>
