<svg width="584" height="358" viewBox="0 0 584 358" fill="none" xmlns="http://www.w3.org/2000/svg">
<path d="M43.921 258.818L158.267 27.8711C173.412 -2.21978 224.906 -12.7514 246.109 27.1188L277.914 91.8143C258.644 79.199 247.439 77.7312 236.265 97.0799C225.091 116.429 143.122 302.449 119.647 333.293C96.1719 364.136 53.7654 363.384 34.8339 333.293C15.9024 303.202 0 264.836 0 264.836C22.0602 277.684 32.7728 280.409 43.921 258.818Z" fill="white"/>
<path d="M258.859 260.41L369.223 27.5596C383.85 -2.78356 435.155 -14.1861 457.04 25.3191L491.461 93.3189C471.977 81.0319 459.895 76.7928 449.055 96.328C438.215 115.863 358.794 302.354 335.852 333.591C312.91 364.828 270.497 364.794 251.052 335.028C231.606 305.262 216.576 265.589 216.576 265.589C233.236 276.873 248.083 282.187 258.859 260.41Z" fill="white"/>
<path d="M465.714 205.407C418.007 243.773 450.569 359.623 583.09 356.614C583.09 356.614 532.353 340.816 548.256 293.423C561.886 267.846 562.544 239.679 552.042 220.453C536.619 192.218 494.096 182.583 465.714 205.407Z" fill="white"/>
</svg>
